<svg width="24" height="24" viewBox="0 0 24 24" fill="none" xmlns="http://www.w3.org/2000/svg">
<g id="ExtraServices" transform="translate(1.2531 1.325)">
<path fill-rule="evenodd" clip-rule="evenodd" d="M14.3501 20.68C15.2001 21.18 15.8801 21.35 16.4101 21.35C16.9801 21.35 17.3801 21.15 17.6301 20.97C18.0901 20.63 18.8001 19.76 18.3401 17.76L17.6301 14.69C17.5601 14.36 17.7101 13.82 17.9501 13.58L20.4301 11.09C21.6601 9.85 21.5601 8.79 21.4001 8.27C21.2401 7.75 20.7001 6.83 18.9701 6.54L15.7801 6.01C15.4801 5.96 15.0501 5.64 14.9101 5.37L13.1501 1.85C12.3501 0.24 11.3001 0 10.7501 0C10.2001 0 9.15012 0.24 8.35012 1.85L6.58012 5.38C6.45012 5.65 6.02012 5.97 5.72012 6.02L2.53012 6.55C0.810118 6.84 0.270118 7.76 0.100118 8.28C-0.0698822 8.8 -0.169882 9.86 1.07012 11.1L3.55012 13.58C3.79012 13.82 3.95012 14.37 3.87012 14.69L3.16012 17.76C2.69012 19.76 3.41012 20.63 3.87012 20.97C4.34012 21.31 5.38012 21.73 7.15012 20.68L10.1501 18.91C10.4501 18.73 11.0501 18.73 11.3601 18.91L14.3501 20.68ZM12.1201 17.62C11.7301 17.39 11.2401 17.27 10.7501 17.27C10.2601 17.27 9.77012 17.39 9.39012 17.62L6.40012 19.39C5.52012 19.9 4.98012 19.91 4.77012 19.76C4.56012 19.61 4.40012 19.09 4.63012 18.1L5.34012 15.03C5.53012 14.2 5.22012 13.12 4.62012 12.52L2.14012 10.04C1.65012 9.56 1.42012 9.07 1.53012 8.74C1.64012 8.41 2.10012 8.14 2.78012 8.03L5.96012 7.5C6.73012 7.37 7.57012 6.75 7.92012 6.05L9.69012 2.53C10.0001 1.89 10.4001 1.51 10.7501 1.51C11.1001 1.51 11.5001 1.89 11.8201 2.53L13.5801 6.05C13.9301 6.75 14.7701 7.37 15.5401 7.5L18.7301 8.03C19.4101 8.14 19.8701 8.41 19.9801 8.74C20.0801 9.07 19.8601 9.55 19.3701 10.04L16.8901 12.52C16.2901 13.13 15.9801 14.2 16.1701 15.03L16.8801 18.1C17.1001 19.08 16.9501 19.61 16.7401 19.76C16.5301 19.91 15.9801 19.91 15.1101 19.39L12.1201 17.62ZM14.0378 11.556C13.6394 12.0352 13.1405 12.4209 12.5765 12.6858C12.0125 12.9507 11.3971 13.0884 10.7739 13.089C10.1508 13.0897 9.53514 12.9532 8.97058 12.6895C8.40602 12.4257 7.90638 12.041 7.50705 11.5626L6.35553 12.5239C6.89581 13.1711 7.5718 13.6915 8.33561 14.0484C9.09942 14.4053 9.93237 14.5899 10.7754 14.589C11.6185 14.5882 12.4511 14.4019 13.2142 14.0435C13.9773 13.6851 14.6522 13.1633 15.1912 12.515L14.0378 11.556Z" fill="currentColor"/>
</g>
</svg>
